# MagicaVoxel @ Ephtracy

# group
o 

# material
mtllib Bullet.mtl
usemtl palette

# normals
vn -1 0 0
vn 1 0 0
vn 0 0 1
vn 0 0 -1
vn 0 -1 0
vn 0 1 0

# texcoords
vt 0.306641 0.5
vt 0.521484 0.5
vt 0.541016 0.5
vt 0.841797 0.5

# verts
v -2 0 2
v -2 0 0.5
v -2 0 -0.5
v -2 0 -2
v -2 0.1 -0.5
v -2 0.1 -0.6
v -2 4 2
v -2 4 0.5
v -2 4 -0.6
v -2 4 -2
v 0.7 1.5 2
v 0.7 1.5 1.9
v 0.7 1.5 1.3
v 0.7 1.6 -1.4
v 0.7 1.6 -1.9
v 0.7 1.6 -2
v 0.7 2.8 2
v 0.7 2.8 1.9
v 0.7 2.8 1.3
v 0.7 2.8 -1.4
v 0.7 2.8 -1.9
v 0.7 2.8 -2
v 0.7 3.1 0.6
v 0.7 3.1 -0.6
v 0.7 3.5 0.6
v 0.7 3.5 0.5
v 0.7 4 0.5
v 0.7 4 -0.6
v -0.6 1.5 1.6
v -0.6 1.5 1.3
v -0.6 2.8 1.6
v -0.6 2.8 1.3
v -0.5 1.5 2
v -0.5 1.5 1.9
v -0.5 1.5 1.6
v -0.5 1.6 -1.4
v -0.5 1.6 -1.9
v -0.5 1.6 -2
v -0.5 2.8 2
v -0.5 2.8 1.9
v -0.5 2.8 1.6
v -0.5 2.8 -1.4
v -0.5 2.8 -1.9
v -0.5 2.8 -2
v -0.5 3.1 0.6
v -0.5 3.1 -0.6
v -0.5 3.4 0.6
v -0.5 3.5 0.6
v -0.5 3.5 0.5
v -0.5 4 0.5
v -0.5 4 -0.6
v 2 0 2
v 2 0 1.9
v 2 0 0.5
v 2 0 -0.6
v 2 0 -2
v 2 0.1 -0.6
v 2 0.1 -1.9
v 2 3.9 1.9
v 2 3.9 0.5
v 2 3.9 -0.6
v 2 3.9 -1.9
v 2 4 2
v 2 4 0.5
v 2 4 -0.6
v 2 4 -2
v -2 0 2
v -2 4 2
v -0.5 0 2
v -0.5 1.5 2
v -0.5 2.8 2
v -0.5 4 2
v 0.7 0 2
v 0.7 1.5 2
v 0.7 2.8 2
v 0.7 4 2
v 2 0 2
v 2 4 2
v -0.6 1.5 1.3
v -0.6 2.8 1.3
v 0.7 1.5 1.3
v 0.7 2.8 1.3
v -0.5 3.1 -0.6
v -0.5 4 -0.6
v 0.7 3.1 -0.6
v 0.7 4 -0.6
v -0.6 1.5 1.6
v -0.6 2.8 1.6
v -0.5 1.5 1.6
v -0.5 2.8 1.6
v -0.5 3.1 0.6
v -0.5 3.4 0.6
v -0.5 3.5 0.6
v -0.3 3.4 0.6
v -0.3 3.5 0.6
v 0.7 3.1 0.6
v 0.7 3.5 0.6
v -0.5 3.5 0.5
v -0.5 4 0.5
v 0.7 3.5 0.5
v 0.7 4 0.5
v -0.5 1.6 -1.4
v -0.5 2.8 -1.4
v 0.7 1.6 -1.4
v 0.7 2.8 -1.4
v -2 0 -2
v -2 4 -2
v -0.5 0 -2
v -0.5 1.6 -2
v -0.5 2.8 -2
v -0.5 4 -2
v 0.7 0 -2
v 0.7 1.6 -2
v 0.7 2.8 -2
v 0.7 4 -2
v 2 0 -2
v 2 4 -2
v -2 0 2
v -0.5 0 2
v 0.7 0 2
v 2 0 2
v 1.9 0 1.9
v 2 0 1.9
v -2 0 0.5
v -0.5 0 0.5
v 0.7 0 0.5
v 1.9 0 0.5
v 2 0 0.5
v -2 0 -0.5
v -0.5 0 -0.5
v 0.7 0 -0.6
v 2 0 -0.6
v -2 0 -2
v -0.5 0 -2
v 0.7 0 -2
v 2 0 -2
v -0.5 2.8 2
v 0.7 2.8 2
v -0.5 2.8 1.9
v 0.7 2.8 1.9
v -0.6 2.8 1.6
v -0.5 2.8 1.6
v -0.6 2.8 1.3
v 0.7 2.8 1.3
v -0.5 2.8 -1.4
v 0.7 2.8 -1.4
v -0.5 2.8 -1.9
v 0.7 2.8 -1.9
v -0.5 2.8 -2
v 0.7 2.8 -2
v -0.5 3.5 0.6
v -0.3 3.5 0.6
v 0.7 3.5 0.6
v -0.5 3.5 0.5
v 0.7 3.5 0.5
v -0.5 1.5 2
v 0.7 1.5 2
v -0.5 1.5 1.9
v 0.7 1.5 1.9
v -0.6 1.5 1.6
v -0.5 1.5 1.6
v -0.6 1.5 1.3
v 0.7 1.5 1.3
v -0.5 1.6 -1.4
v 0.7 1.6 -1.4
v -0.5 1.6 -1.9
v 0.7 1.6 -1.9
v -0.5 1.6 -2
v 0.7 1.6 -2
v -0.5 3.1 0.6
v 0.7 3.1 0.6
v -0.5 3.1 -0.6
v 0.7 3.1 -0.6
v -2 4 2
v -0.5 4 2
v 0.7 4 2
v 2 4 2
v -2 4 0.5
v -0.5 4 0.5
v 0.7 4 0.5
v 2 4 0.5
v -2 4 -0.6
v -0.5 4 -0.6
v 0.7 4 -0.6
v 2 4 -0.6
v -2 4 -2
v -0.5 4 -2
v 0.7 4 -2
v 2 4 -2

# faces
f 5/4/1 3/4/1 2/4/1
f 5/2/1 4/2/1 3/2/1
f 6/2/1 4/2/1 5/2/1
f 7/2/1 2/2/1 1/2/1
f 8/4/1 5/4/1 2/4/1
f 8/2/1 2/2/1 7/2/1
f 8/4/1 6/4/1 5/4/1
f 9/2/1 4/2/1 6/2/1
f 9/4/1 6/4/1 8/4/1
f 10/2/1 4/2/1 9/2/1
f 17/2/1 12/2/1 11/2/1
f 18/4/1 13/4/1 12/4/1
f 18/2/1 12/2/1 17/2/1
f 19/4/1 13/4/1 18/4/1
f 20/4/1 15/4/1 14/4/1
f 21/2/1 16/2/1 15/2/1
f 21/4/1 15/4/1 20/4/1
f 22/2/1 16/2/1 21/2/1
f 25/4/1 24/4/1 23/4/1
f 26/4/1 24/4/1 25/4/1
f 27/4/1 24/4/1 26/4/1
f 28/4/1 24/4/1 27/4/1
f 29/4/2 30/4/2 31/4/2
f 31/4/2 30/4/2 32/4/2
f 33/2/2 34/2/2 39/2/2
f 34/4/2 35/4/2 40/4/2
f 39/2/2 34/2/2 40/2/2
f 40/4/2 35/4/2 41/4/2
f 36/4/2 37/4/2 42/4/2
f 37/2/2 38/2/2 43/2/2
f 42/4/2 37/4/2 43/4/2
f 43/2/2 38/2/2 44/2/2
f 45/4/2 46/4/2 47/4/2
f 47/4/2 46/4/2 48/4/2
f 48/4/2 46/4/2 49/4/2
f 49/4/2 46/4/2 50/4/2
f 50/4/2 46/4/2 51/4/2
f 54/4/2 55/4/2 57/4/2
f 55/2/2 56/2/2 57/2/2
f 57/2/2 56/2/2 58/2/2
f 52/2/2 53/2/2 59/2/2
f 53/3/2 54/3/2 59/3/2
f 54/4/2 57/4/2 60/4/2
f 59/3/2 54/3/2 60/3/2
f 57/3/2 58/3/2 61/3/2
f 60/4/2 57/4/2 61/4/2
f 58/2/2 56/2/2 62/2/2
f 61/3/2 58/3/2 62/3/2
f 59/2/2 60/2/2 63/2/2
f 52/2/2 59/2/2 63/2/2
f 60/4/2 61/4/2 64/4/2
f 63/2/2 60/2/2 64/2/2
f 61/2/2 62/2/2 65/2/2
f 64/4/2 61/4/2 65/4/2
f 62/2/2 56/2/2 66/2/2
f 65/2/2 62/2/2 66/2/2
f 69/2/3 68/2/3 67/2/3
f 70/2/3 68/2/3 69/2/3
f 71/2/3 68/2/3 70/2/3
f 72/2/3 68/2/3 71/2/3
f 73/4/3 70/4/3 69/4/3
f 74/4/3 70/4/3 73/4/3
f 75/4/3 72/4/3 71/4/3
f 76/4/3 72/4/3 75/4/3
f 77/2/3 74/2/3 73/2/3
f 77/2/3 75/2/3 74/2/3
f 77/2/3 76/2/3 75/2/3
f 78/2/3 76/2/3 77/2/3
f 81/4/3 80/4/3 79/4/3
f 82/4/3 80/4/3 81/4/3
f 85/4/3 84/4/3 83/4/3
f 86/4/3 84/4/3 85/4/3
f 87/4/4 88/4/4 89/4/4
f 89/4/4 88/4/4 90/4/4
f 91/4/4 92/4/4 94/4/4
f 92/1/4 93/1/4 94/1/4
f 94/1/4 93/1/4 95/1/4
f 91/4/4 94/4/4 96/4/4
f 94/4/4 95/4/4 96/4/4
f 96/4/4 95/4/4 97/4/4
f 98/4/4 99/4/4 100/4/4
f 100/4/4 99/4/4 101/4/4
f 102/4/4 103/4/4 104/4/4
f 104/4/4 103/4/4 105/4/4
f 106/2/4 107/2/4 108/2/4
f 108/2/4 107/2/4 109/2/4
f 109/2/4 107/2/4 110/2/4
f 110/2/4 107/2/4 111/2/4
f 108/4/4 109/4/4 112/4/4
f 112/4/4 109/4/4 113/4/4
f 110/4/4 111/4/4 114/4/4
f 114/4/4 111/4/4 115/4/4
f 112/2/4 113/2/4 116/2/4
f 113/2/4 114/2/4 116/2/4
f 114/2/4 115/2/4 116/2/4
f 116/2/4 115/2/4 117/2/4
f 122/2/5 121/2/5 120/2/5
f 123/2/5 121/2/5 122/2/5
f 124/2/5 119/2/5 118/2/5
f 125/4/5 120/4/5 119/4/5
f 125/2/5 119/2/5 124/2/5
f 126/2/5 122/2/5 120/2/5
f 126/4/5 120/4/5 125/4/5
f 127/3/5 123/3/5 122/3/5
f 127/2/5 122/2/5 126/2/5
f 128/3/5 123/3/5 127/3/5
f 129/4/5 125/4/5 124/4/5
f 129/4/5 126/4/5 125/4/5
f 129/4/5 128/4/5 127/4/5
f 129/4/5 127/4/5 126/4/5
f 130/4/5 128/4/5 129/4/5
f 131/4/5 128/4/5 130/4/5
f 132/4/5 128/4/5 131/4/5
f 133/2/5 130/2/5 129/2/5
f 134/4/5 131/4/5 130/4/5
f 134/2/5 130/2/5 133/2/5
f 135/2/5 132/2/5 131/2/5
f 135/4/5 131/4/5 134/4/5
f 136/2/5 132/2/5 135/2/5
f 139/4/5 138/4/5 137/4/5
f 140/4/5 138/4/5 139/4/5
f 142/4/5 140/4/5 139/4/5
f 143/4/5 142/4/5 141/4/5
f 144/4/5 140/4/5 142/4/5
f 144/4/5 142/4/5 143/4/5
f 147/4/5 146/4/5 145/4/5
f 148/4/5 146/4/5 147/4/5
f 149/4/5 148/4/5 147/4/5
f 150/4/5 148/4/5 149/4/5
f 154/4/5 152/4/5 151/4/5
f 154/4/5 153/4/5 152/4/5
f 155/4/5 153/4/5 154/4/5
f 156/4/6 157/4/6 158/4/6
f 158/4/6 157/4/6 159/4/6
f 158/4/6 159/4/6 161/4/6
f 160/4/6 161/4/6 162/4/6
f 161/4/6 159/4/6 163/4/6
f 162/4/6 161/4/6 163/4/6
f 164/4/6 165/4/6 166/4/6
f 166/4/6 165/4/6 167/4/6
f 166/4/6 167/4/6 168/4/6
f 168/4/6 167/4/6 169/4/6
f 170/4/6 171/4/6 172/4/6
f 172/4/6 171/4/6 173/4/6
f 174/2/6 175/2/6 178/2/6
f 175/4/6 176/4/6 179/4/6
f 178/2/6 175/2/6 179/2/6
f 176/2/6 177/2/6 180/2/6
f 179/4/6 176/4/6 180/4/6
f 180/2/6 177/2/6 181/2/6
f 178/4/6 179/4/6 182/4/6
f 182/4/6 179/4/6 183/4/6
f 180/4/6 181/4/6 184/4/6
f 184/4/6 181/4/6 185/4/6
f 182/2/6 183/2/6 186/2/6
f 183/4/6 184/4/6 187/4/6
f 186/2/6 183/2/6 187/2/6
f 184/2/6 185/2/6 188/2/6
f 187/4/6 184/4/6 188/4/6
f 188/2/6 185/2/6 189/2/6
